<svg width="200" height="200" xmlns="http://www.w3.org/2000/svg" preserveAspectRatio="xMidYMid meet">
<!-- created using https://editor.method.ac -->
 <g>
  <title>background</title>
  <rect fill="none" id="canvas_background" height="402" width="582" y="-1" x="-1"/>
 </g>
 <g>
  <title>Layer 1</title>
  <g id="svg_1" fill="#000000" transform="translate(0, 200) scale(0.1, -0.1)">
   <path fill="#84D3DB" id="svg_2" d="m1370,1021c-75,-21 -101,-34 -161,-80c-68,-52 -135,-151 -153,-223l-6,-28l150,0l150,0l0,60c0,33 4,60 9,60c5,0 43,-20 85,-45c42,-24 106,-61 143,-81c81,-45 143,-83 143,-88c0,-3 -24,-18 -52,-33c-71,-39 -116,-65 -225,-129c-51,-30 -94,-54 -97,-54c-3,0 -6,29 -6,65l0,65l-151,0c-166,0 -152,6 -133,-61c14,-50 82,-145 135,-189c87,-72 151,-94 279,-95c88,0 115,4 163,23c119,48 224,166 261,291c30,102 13,250 -36,323c-10,14 -18,31 -18,36c0,16 -127,130 -168,151c-49,24 -158,51 -208,50c-21,0 -68,-8 -104,-18z"/>
  </g>
  <g id="svg_4" fill="#000000" transform="rotate(-120, 102.445, 55.7986) translate(0, 200) scale(0.1, -0.1)">
   <path fill="#FFB27C" id="svg_3" d="m910,1861c-75,-21 -101,-34 -161,-80c-68,-52 -135,-151 -153,-223l-6,-28l150,0l150,0l0,60c0,33 4,60 9,60c5,0 43,-20 85,-45c42,-24 106,-61 143,-81c81,-45 143,-83 143,-88c0,-3 -24,-18 -52,-33c-71,-39 -116,-65 -225,-129c-51,-30 -94,-54 -97,-54c-3,0 -6,29 -6,65l0,65l-151,0c-166,0 -152,6 -133,-61c14,-50 82,-145 135,-189c87,-72 151,-94 279,-95c88,0 115,4 163,23c119,48 224,166 261,291c30,102 13,250 -36,323c-10,14 -18,31 -18,36c0,16 -127,130 -168,151c-49,24 -158,51 -208,50c-21,0 -68,-8 -104,-18z"/>
  </g>
  <g id="svg_6" fill="#000000" transform="rotate(120, 56.4445, 139.799) translate(0, 200) scale(0.1, -0.1)">
   <path fill="#8CD79F" id="svg_5" d="m450,1021c-75,-21 -101,-34 -161,-80c-68,-52 -135,-151 -153,-223l-6,-28l150,0l150,0l0,60c0,33 4,60 9,60c5,0 43,-20 85,-45c42,-24 106,-61 143,-81c81,-45 143,-83 143,-88c0,-3 -24,-18 -52,-33c-71,-39 -116,-65 -225,-129c-51,-30 -94,-54 -97,-54c-3,0 -6,29 -6,65l0,65l-151,0c-166,0 -152,6 -133,-61c14,-50 82,-145 135,-189c87,-72 151,-94 279,-95c88,0 115,4 163,23c119,48 224,166 261,291c30,102 13,250 -36,323c-10,14 -18,31 -18,36c0,16 -127,130 -168,151c-49,24 -158,51 -208,50c-21,0 -68,-8 -104,-18z"/>
  </g>
 </g>
</svg>